# xmcd CD database file
#
# Track frame offsets:
#	150
#	13627
#	26272
#	38487
#	49905
#	64827
#	83380
#	97780
#	120470
#	136255
#	149345
#	160237
#	174690
#	190580
#	202010
#	218077
#	233107
#	246110
#
# Disc length: 3710 seconds
#
# Revision: 2
# Processed by: cddbd v1.5.1PL0 Copyright (c) Steve Scherf et al.
# Submitted via: CDex 1.51
#
DISCID=e40e7c12
DTITLE=Blues and soul - Volume 4
DYEAR=1900
DGENRE=Soul
TTITLE0=Dobie Gray- The In Crowd
TTITLE1=Lowell Fulson-It's a Long Time
TTITLE2=Gladys Knight-Letter Full of Tears
TTITLE3=Fats Domino-Blue Monday
TTITLE4=The Platters-Great Pretender
TTITLE5=James Brown- Bring it On
TTITLE6=JB Lenoir-Man Watch Your Woman
TTITLE7=The O'Jays-Peace
TTITLE8=Gloria Brooke-When Push Comes to Shove
TTITLE9=Temptations-I can't get Next to You
TTITLE10=Fats Domino-Walkin' to New Orleans
TTITLE11=The Del Vikings-Come Go with Me
TTITLE12=The Ink Spots-If I Didn't Care
TTITLE13=The Platters-Only you
TTITLE14=Dobie Gray-Drift away
TTITLE15=Detroit Emeralds-Feel the Need in Me
TTITLE16=The Vandellas-Jimmy Mack
TTITLE17=Temptations-Papa was a Rolling Stone
EXTD=
EXTT0=
EXTT1=
EXTT2=
EXTT3=
EXTT4=
EXTT5=
EXTT6=
EXTT7=
EXTT8=
EXTT9=
EXTT10=
EXTT11=
EXTT12=
EXTT13=
EXTT14=
EXTT15=
EXTT16=
EXTT17=
PLAYORDER=
